<?xml version="1.0" encoding="utf-8"?>
<!-- Generator: Adobe Illustrator 24.0.0, SVG Export Plug-In . SVG Version: 6.00 Build 0)  -->
<svg version="1.1" id="Layer_1" xmlns="http://www.w3.org/2000/svg" xmlns:xlink="http://www.w3.org/1999/xlink" x="0px" y="0px"
	 viewBox="0 0 300 79.58" style="enable-background:new 0 0 300 79.58;" xml:space="preserve">
<style type="text/css">
	.st0{fill:#100E0F;}
</style>
<g>
	<path class="st0" d="M61.98,34.06H37.25c-0.64,0-1.16,0.52-1.16,1.16v12.09c0,0.64,0.52,1.16,1.16,1.16h9.65v15.02
		c0,0-2.17,0.74-8.15,0.74c-7.07,0-16.93-2.58-16.93-24.28c0-21.71,10.28-24.56,19.93-24.56c8.35,0,11.95,1.47,14.24,2.18
		c0.72,0.22,1.38-0.5,1.38-1.13l2.76-11.68c0-0.3-0.1-0.66-0.44-0.9C58.75,3.17,53.07,0,38.74,0C22.23,0,5.3,7.02,5.3,40.79
		c0,33.76,19.39,38.79,35.72,38.79c13.53,0,21.73-5.78,21.73-5.78c0.34-0.19,0.37-0.66,0.37-0.88V35.22
		C63.13,34.58,62.62,34.06,61.98,34.06z"/>
	<path class="st0" d="M189.42,4.05c0-0.64-0.51-1.16-1.15-1.16h-13.92c-0.64,0-1.15,0.52-1.15,1.16c0,0,0,26.91,0,26.91h-21.7V4.05
		c0-0.64-0.51-1.16-1.15-1.16h-13.92c-0.63,0-1.15,0.52-1.15,1.16V76.9c0,0.64,0.52,1.17,1.15,1.17h13.92
		c0.64,0,1.15-0.52,1.15-1.17V45.74h21.7c0,0-0.04,31.16-0.04,31.16c0,0.64,0.52,1.17,1.15,1.17h13.96c0.64,0,1.15-0.52,1.15-1.17
		V4.05z"/>
	<g>
		<g>
			<path class="st0" d="M88.25,13.61c0-5.01-4.02-9.06-8.98-9.06c-4.95,0-8.98,4.05-8.98,9.06c0,5.01,4.02,9.07,8.98,9.07
				C84.23,22.68,88.25,18.61,88.25,13.61z"/>
			<path class="st0" d="M87.26,61.53c0-1.87,0-33.63,0-33.63c0-0.64-0.52-1.16-1.15-1.16H72.23c-0.64,0-1.21,0.66-1.21,1.3
				c0,0,0,40.47,0,48.18c0,1.42,0.88,1.84,2.02,1.84c0,0,5.92,0,12.51,0c1.37,0,1.71-0.67,1.71-1.86
				C87.26,73.62,87.26,63.5,87.26,61.53z"/>
		</g>
	</g>
	<path class="st0" d="M242.33,26.85h-13.82c-0.63,0-1.15,0.52-1.15,1.17v35.72c0,0-3.51,2.57-8.49,2.57c-4.98,0-6.3-2.26-6.3-7.14
		c0-4.88,0-31.15,0-31.15c0-0.64-0.51-1.17-1.15-1.17H197.4c-0.63,0-1.15,0.52-1.15,1.17c0,0,0,19.02,0,33.51
		c0,14.49,8.08,18.03,19.18,18.03c9.11,0,16.46-5.03,16.46-5.03s0.35,2.65,0.51,2.97c0.16,0.31,0.57,0.63,1.02,0.63l8.92-0.04
		c0.63,0,1.15-0.52,1.15-1.16l0-48.91C243.49,27.37,242.97,26.85,242.33,26.85z"/>
	<path class="st0" d="M280.1,25.22c-7.85,0-13.18,3.5-13.18,3.5V4.05c0-0.64-0.51-1.16-1.15-1.16H251.8c-0.63,0-1.15,0.52-1.15,1.16
		V76.9c0,0.64,0.52,1.17,1.15,1.17c0,0,9.68,0,9.69,0c0.44,0,0.77-0.22,1.01-0.62c0.24-0.39,0.59-3.36,0.59-3.36
		s5.71,5.41,16.52,5.41c12.69,0,19.97-6.44,19.97-28.89C299.57,28.15,287.95,25.22,280.1,25.22z M274.65,66.27
		c-4.79-0.15-8.04-2.32-8.04-2.32V40.87c0,0,3.21-1.97,7.14-2.32c4.98-0.45,9.77,1.06,9.77,12.93
		C283.52,64,281.35,66.47,274.65,66.27z"/>
	<path class="st0" d="M127.27,26.74h-10.44c0,0-0.02-13.8-0.02-13.8c0-0.52-0.27-0.78-0.87-0.78h-14.23c-0.55,0-0.85,0.24-0.85,0.78
		v14.26c0,0-7.13,1.72-7.62,1.86c-0.48,0.14-0.83,0.58-0.83,1.11v8.96c0,0.64,0.51,1.16,1.15,1.16h7.3c0,0,0,9.37,0,21.56
		c0,16.01,11.23,17.58,18.81,17.58c3.46,0,7.6-1.11,8.29-1.36c0.41-0.15,0.65-0.58,0.65-1.04l0.01-9.86c0-0.64-0.54-1.16-1.15-1.16
		c-0.61,0-2.17,0.25-3.77,0.25c-5.13,0-6.87-2.39-6.87-5.47c0-3.09,0-20.48,0-20.48h10.44c0.64,0,1.15-0.52,1.15-1.16V27.9
		C128.43,27.25,127.91,26.74,127.27,26.74z"/>
</g>
</svg>
