<svg width="34" height="35" viewBox="0 0 34 35" fill="none" xmlns="http://www.w3.org/2000/svg">
<path d="M27.929 17.4248V5.56299H18.5404L17.1261 8.15221H25.3909V12.0165L27.929 17.4248Z" fill="#010202"/>
<path d="M9.11504 8.15221H10.9006L12.0967 5.56299H6.57694V10.1299H9.11504V8.15221Z" fill="#010202"/>
<path d="M25.3909 26.9331C25.1443 27.7904 23.5273 32.4108 17.3996 32.4108C10.7759 32.4108 9.44664 28.0477 9.39704 27.8728L6.94822 28.5537C7.01908 28.8168 8.77066 34.9985 17.3996 34.9985C22.507 34.9985 25.4589 32.3023 26.9001 29.8302L25.3909 25.1896V26.9331Z" fill="#010202"/>
<path d="M31.3244 28.8052L23.0073 10.8585L19.9207 10.8021L24.2104 19.8189H10.2176L17.1899 4.27778H20.2523L19.4106 2.60801L17.9424 2.59934H17.9438L21.2146 2.61958L21.2302 0.0303594L16.3184 0L16.3169 0.00433705H12.9852V2.59356H15.1549L3.25942 29.1103L0 29.1522L0.0325942 31.7414L4.89763 31.6778L9.05694 22.4081H25.4419L29.7174 31.3945H34V28.8052H31.3244Z" fill="#010202"/>
</svg>
